<svg width="155" height="37" viewBox="0 0 155 37" fill="none" xmlns="http://www.w3.org/2000/svg">
<path d="M6.48586 7.08262C6.48061 7.08787 6.48061 7.09312 6.47535 7.09837C6.58039 7.0301 6.68017 6.95658 6.7852 6.88831C6.68542 6.95133 6.58564 7.01435 6.48586 7.08262ZM28.4748 28.3783C28.4748 28.3783 22.5691 27.0006 18.5 27C18.3749 27 25.9942 26.5409 18.5 26C11.0058 25.4591 11 22.6307 11 15C11 12.3479 5.19394 9.24107 6.47535 7.10363C2.59434 9.68746 0 14.0831 0 19.0513C0 26.682 5.78738 32.4536 13.2816 32.9945L13.5442 32.9998L25.6231 33.0418C27.1986 33.0418 28.4748 31.7709 28.4748 30.2006C28.4958 30.2006 28.4748 28.3783 28.4748 28.3783Z" fill="#930F83"/>
<path d="M19.2105 0.00334996C13.8485 -0.112188 9.07468 2.771 6.49084 7.08265C8.86461 5.50714 11.4593 8.93173 14.5 9C22.3828 9.16805 19.2105 9.09093 19.2105 17L28.4745 28.3783L30.0763 28.3836C31.6518 28.3836 32.9279 27.1127 32.9279 25.5424V14.3878C32.9279 6.47345 27.0933 0.166153 19.2105 0.00334996ZM6.43832 7.16668C6.45408 7.13517 6.47509 7.10891 6.49084 7.08265C6.49084 7.08265 6.48559 7.08265 6.48559 7.0879C6.46983 7.10891 6.45408 7.14042 6.43832 7.16668Z" fill="#E54217"/>
<path d="M14.757 4.66681C11.711 4.60379 8.85934 5.50183 6.48557 7.08259C5.1989 9.23054 4.45316 11.7251 4.45316 14.3877C4.45316 22.0184 10.2405 27.7901 17.7347 28.331H18.0551L28.4745 28.3783V19.0512C28.4745 11.1422 22.6398 4.83486 14.757 4.66681Z" fill="#52197F"/>
<path d="M98.9463 13.8521C101.52 13.8521 103.615 15.9475 103.615 18.5208V23.1896H98.9463C96.373 23.1896 94.2775 21.0942 94.2775 18.5208C94.2775 15.9475 96.3677 13.8521 98.9463 13.8521ZM98.9463 10.9794C94.7817 10.9794 91.4048 14.3562 91.4048 18.5208C91.4048 22.6854 94.7817 26.0623 98.9463 26.0623H105.054C105.847 26.0623 106.493 25.4216 106.493 24.6233V18.5208C106.488 14.3562 103.111 10.9794 98.9463 10.9794Z" fill="#52197F"/>
<path d="M62.3735 14.2144C64.9469 14.2144 67.0423 16.3098 67.0423 18.8831C67.0423 21.4565 64.9469 23.5519 62.3735 23.5519C59.8002 23.5519 57.7048 21.4565 57.7048 18.8831C57.7048 16.3098 59.8002 14.2144 62.3735 14.2144ZM62.3735 11.3417C58.2089 11.3417 54.8321 14.7185 54.8321 18.8831C54.8321 23.0477 58.2089 26.4246 62.3735 26.4246C66.5381 26.4246 69.915 23.0477 69.915 18.8831C69.915 14.7185 66.5381 11.3417 62.3735 11.3417Z" fill="#52197F"/>
<path d="M84.8455 11.6568C83.1912 11.578 81.6892 12.2607 80.6547 13.3794C79.6201 12.2607 78.1233 11.5833 76.4638 11.6568C73.5701 11.7933 71.3486 14.2879 71.3486 17.1816V24.5812C71.3486 25.3742 71.9893 26.0202 72.7876 26.0202C73.5806 26.0202 74.2266 25.3795 74.2266 24.5812V17.1081C74.2266 15.8372 75.1351 14.708 76.3955 14.5452C77.9185 14.3509 79.2209 15.5378 79.2209 17.0188V24.2661C79.2209 25.0591 79.8616 25.7051 80.6599 25.7051C81.4529 25.7051 82.0989 25.0644 82.0989 24.2661V17.1081C82.0989 15.8372 83.0074 14.708 84.2678 14.5452C85.7908 14.3509 87.0932 15.5378 87.0932 17.0188V24.576C87.0932 25.369 87.734 26.015 88.5322 26.015C89.3252 26.015 89.9712 25.3742 89.9712 24.576V17.1816C89.9607 14.2879 87.7392 11.7933 84.8455 11.6568Z" fill="#52197F"/>
<path d="M46.0775 26.3669C43.1313 26.0675 41.5033 24.9646 40.6315 23.2999C40.1169 22.3125 40.9729 21.1572 42.081 21.2674H42.102C42.5904 21.3147 42.9895 21.6246 43.2416 22.0447C43.7458 22.8745 44.8486 23.3471 46.3611 23.4994C48.1362 23.678 49.7222 23.3839 50.3104 22.7747C50.468 22.6119 50.6413 22.344 50.552 21.7454C50.3577 20.4009 47.6215 20.2539 46.9021 20.2906C44.8276 20.4272 41.1409 19.8442 40.5948 16.8193C40.3584 15.4958 40.7313 14.2197 41.6451 13.2323C42.937 11.8354 45.2163 11.1159 47.59 11.3522C50.4522 11.6411 52.0697 12.6914 52.9573 14.2722C53.535 15.3015 52.742 16.5619 51.5656 16.4464C51.0772 16.3991 50.678 16.0893 50.426 15.6691C49.9218 14.8394 48.8189 14.3667 47.3064 14.2144C45.857 14.0674 44.4338 14.4612 43.7615 15.186C43.4569 15.5168 43.3519 15.8739 43.4307 16.3151C43.6092 17.3024 45.9568 17.4757 46.7445 17.4284C48.9975 17.3129 52.9153 18.0009 53.4037 21.341C53.6505 23.0425 52.994 24.1454 52.3953 24.7703C50.6308 26.6084 47.3905 26.5034 46.0775 26.3669Z" fill="#52197F"/>
<path d="M132.422 13.8521C134.995 13.8521 137.09 15.9475 137.09 18.5208V23.1896H132.422C129.848 23.1896 127.753 21.0942 127.753 18.5208C127.753 15.9475 129.848 13.8521 132.422 13.8521ZM132.422 10.9794C128.257 10.9794 124.88 14.3562 124.88 18.5208C124.88 22.6854 128.257 26.0623 132.422 26.0623H138.529C139.322 26.0623 139.968 25.4216 139.968 24.6233V18.5208C139.963 14.3562 136.586 10.9794 132.422 10.9794Z" fill="#E54217"/>
<path d="M108.342 19.9597V34.2969C108.342 35.0899 108.983 35.7359 109.781 35.7359C110.574 35.7359 111.22 35.0951 111.22 34.2969V24.7965C112.507 25.8101 114.124 26.4246 115.889 26.4246C120.054 26.4246 123.43 23.0477 123.43 18.8831C123.43 14.7185 120.054 11.3417 115.889 11.3417C111.724 11.3417 108.348 14.7185 108.348 18.8831V19.9597H108.342ZM116.493 23.5151C113.442 23.9038 110.868 21.3252 111.252 18.2792C111.514 16.1995 113.195 14.5242 115.275 14.2564C118.326 13.8677 120.899 16.4463 120.516 19.4976C120.248 21.572 118.573 23.2473 116.493 23.5151Z" fill="#E54217"/>
<path d="M153.417 11.0791C152.624 11.0791 151.978 11.7198 151.978 12.5181V19.2455V19.8232C151.978 21.7348 150.539 23.4049 148.633 23.5309C146.543 23.6727 144.794 22.0079 144.794 19.9492V12.5128C144.794 11.7198 144.153 11.0739 143.355 11.0739C142.562 11.0739 141.916 11.7146 141.916 12.5128V19.7864C141.916 23.2263 144.542 26.183 147.971 26.3983C149.452 26.4876 150.839 26.078 151.968 25.3165V29.5283C151.968 31.44 150.529 33.11 148.623 33.2361C146.532 33.3778 144.784 31.7131 144.784 29.6544C144.784 28.8614 144.143 28.2154 143.345 28.2154H143.187C142.483 28.2154 141.911 28.7879 141.911 29.4916C141.911 32.8632 144.427 35.7884 147.782 36.0877C151.611 36.4343 154.841 33.4094 154.841 29.6491V19.9492V19.2455V12.5128C154.856 11.7198 154.21 11.0791 153.417 11.0791Z" fill="#E54217"/>
</svg>
